<?xml version="1.0" standalone="no"?>
<!DOCTYPE svg PUBLIC "-//W3C//DTD SVG 20010904//EN"
 "http://www.w3.org/TR/2001/REC-SVG-20010904/DTD/svg10.dtd">
<svg version="1.0" xmlns="http://www.w3.org/2000/svg"
 width="700.000000pt" height="700.000000pt" viewBox="0 0 700.000000 700.000000"
 preserveAspectRatio="xMidYMid meet">
<metadata>
Created by potrace 1.14, written by Peter Selinger 2001-2017
</metadata>
<g transform="translate(0.000000,700.000000) scale(0.100000,-0.100000)"
fill="#000000" stroke="none">
<path d="M3477 6418 c-9 -57 -19 -114 -21 -128 -3 -14 -12 -65 -21 -115 -23
-135 -24 -143 -40 -230 -8 -44 -17 -96 -20 -115 -3 -19 -7 -46 -10 -60 -3 -14
-7 -41 -10 -60 -3 -19 -10 -60 -15 -90 -5 -30 -12 -71 -15 -90 -3 -19 -8 -42
-10 -50 -2 -8 -6 -31 -9 -50 -3 -19 -20 -116 -37 -215 -17 -99 -32 -184 -32
-190 0 -5 4 -68 8 -140 4 -71 9 -155 10 -185 1 -30 6 -107 9 -170 4 -63 9
-146 11 -185 3 -38 7 -110 10 -160 7 -124 21 -366 30 -530 3 -55 8 -131 10
-170 2 -38 7 -117 10 -175 7 -128 13 -229 20 -335 5 -91 13 -231 20 -355 3
-47 7 -128 10 -180 3 -52 7 -129 10 -170 8 -128 14 -231 20 -340 3 -58 8 -140
11 -183 2 -42 6 -112 9 -155 6 -123 16 -292 20 -357 2 -33 7 -114 10 -180 3
-66 8 -142 10 -170 10 -127 17 -300 12 -295 -3 3 -8 47 -12 99 -4 52 -8 101
-10 110 -3 19 -15 135 -20 201 -3 46 -12 135 -20 205 -2 22 -9 92 -15 155 -5
63 -12 131 -15 150 -2 19 -7 67 -10 105 -3 39 -8 86 -10 105 -2 19 -7 67 -10
105 -3 39 -8 81 -10 95 -2 14 -6 57 -10 95 -6 77 -14 159 -20 220 -3 22 -7 67
-10 100 -3 33 -7 78 -10 100 -2 22 -6 65 -9 95 -3 30 -8 80 -11 110 -3 30 -7
78 -10 105 -5 51 -13 129 -20 200 -2 22 -7 67 -10 100 -3 33 -7 76 -10 95 -2
19 -7 70 -10 112 -4 43 -8 90 -10 105 -2 16 -6 61 -10 102 -4 41 -8 82 -10 90
-1 9 -6 56 -10 105 -4 49 -8 96 -10 105 -1 9 -6 52 -10 96 -3 44 -8 94 -10
110 -2 17 -7 62 -10 100 -13 150 -23 249 -30 305 -2 19 -7 69 -10 110 -4 41
-8 86 -10 100 -2 14 -7 57 -10 95 -3 39 -8 86 -10 105 -2 19 -7 64 -10 100 -3
36 -7 76 -9 90 -2 14 -35 113 -74 220 -39 107 -91 254 -117 325 -26 72 -75
209 -110 305 -35 96 -89 248 -121 338 -31 89 -59 160 -61 158 -4 -3 -6 -144
-18 -931 -5 -396 -6 -638 -1 -660 3 -11 12 -54 20 -95 9 -41 25 -113 36 -160
20 -88 209 -940 216 -975 2 -11 6 -29 8 -40 44 -192 68 -304 72 -320 2 -11 47
-213 99 -450 52 -236 97 -438 99 -450 7 -30 143 -646 166 -745 21 -91 24 -109
126 -565 36 -165 68 -303 71 -307 2 -5 0 -8 -4 -8 -5 0 -20 46 -35 102 -26
102 -60 228 -112 423 -15 55 -33 123 -41 150 -16 60 -58 215 -91 340 -13 50
-26 97 -28 106 -2 8 -34 128 -71 265 -37 137 -74 274 -82 304 -36 139 -65 248
-108 405 -25 94 -68 256 -96 360 -28 105 -68 255 -90 335 -53 196 -109 406
-154 575 -20 77 -58 219 -85 315 -26 96 -58 216 -70 265 -13 50 -32 101 -41
115 -10 14 -155 248 -323 520 -168 272 -313 504 -322 515 l-16 20 6 -20 c3
-11 8 -40 11 -65 3 -25 7 -56 10 -70 2 -14 6 -41 9 -60 3 -19 10 -71 16 -115
5 -44 12 -91 15 -105 2 -14 9 -61 15 -105 6 -44 13 -91 15 -105 2 -14 7 -47
11 -75 3 -27 7 -57 9 -65 1 -8 6 -40 10 -70 4 -30 9 -63 11 -74 2 -10 6 -44
10 -75 3 -31 7 -63 9 -71 4 -22 14 -89 20 -135 3 -23 7 -50 9 -61 2 -12 7 -45
11 -75 3 -30 8 -61 10 -69 2 -8 7 -36 10 -62 5 -43 25 -106 60 -183 8 -16 32
-75 55 -130 23 -55 47 -113 55 -130 13 -29 233 -551 502 -1190 74 -176 140
-333 147 -350 8 -16 26 -59 41 -95 15 -36 33 -78 41 -95 15 -35 291 -691 366
-870 27 -66 56 -133 63 -150 55 -123 215 -509 212 -511 -1 -2 -20 34 -42 79
-21 45 -96 199 -166 342 -69 143 -149 307 -177 365 -27 58 -94 195 -147 305
-54 110 -132 272 -175 360 -43 88 -114 234 -158 325 -44 91 -109 226 -145 300
-36 74 -115 239 -177 365 -62 127 -134 275 -160 330 -26 55 -100 208 -165 340
-64 132 -127 263 -140 290 -14 31 -48 74 -87 110 -110 103 -212 198 -279 260
-36 33 -119 110 -185 172 -66 61 -139 129 -163 150 -24 21 -61 56 -83 77 -21
22 -40 37 -42 35 -2 -2 2 -22 9 -44 14 -43 172 -533 237 -735 22 -69 62 -192
89 -275 26 -82 60 -188 75 -235 25 -78 44 -108 223 -359 108 -150 208 -289
222 -310 32 -45 242 -338 543 -756 126 -176 241 -336 255 -356 45 -63 111
-156 301 -419 101 -140 222 -309 269 -375 47 -66 89 -124 94 -130 4 -5 44 -61
88 -123 59 -82 84 -110 93 -103 6 5 18 6 25 2 9 -6 10 -11 2 -15 -6 -4 -16 -4
-21 -1 -5 3 -10 2 -10 -4 0 -5 8 -12 18 -14 12 -3 13 -5 2 -6 -8 0 -49 40 -90
91 -120 146 -330 401 -354 428 -12 14 -48 59 -81 100 -33 41 -64 80 -70 86
-14 16 -58 69 -358 433 -148 179 -283 344 -302 366 -65 79 -157 190 -173 210
-10 11 -35 43 -57 70 -22 28 -42 52 -46 55 -3 3 -152 183 -331 400 l-326 396
-263 108 c-145 60 -348 143 -451 186 -117 49 -184 72 -181 62 5 -12 153 -278
288 -517 16 -27 38 -68 51 -90 12 -22 75 -135 140 -250 66 -116 126 -223 134
-239 16 -31 13 -29 460 -372 179 -137 332 -254 340 -261 8 -7 74 -57 145 -112
72 -54 443 -340 825 -634 454 -350 699 -532 706 -526 6 5 13 6 16 3 3 -3 46
25 94 62 154 117 209 159 214 164 3 3 32 26 65 51 33 25 179 137 325 249 146
112 339 260 428 329 90 70 212 163 270 208 59 46 150 115 202 155 52 40 165
127 250 193 144 111 269 207 515 396 67 51 108 91 125 120 13 24 34 60 45 80
11 19 46 82 78 140 32 57 67 120 78 139 118 201 410 732 406 736 -3 3 -13 1
-24 -5 -10 -6 -56 -26 -103 -45 -47 -19 -213 -87 -370 -151 -157 -65 -310
-128 -340 -140 -53 -21 -67 -36 -319 -341 -327 -396 -585 -709 -719 -873 -57
-69 -113 -137 -125 -151 -12 -14 -51 -62 -87 -105 -35 -44 -67 -82 -70 -85 -3
-3 -55 -66 -116 -140 -61 -74 -249 -304 -420 -510 -170 -207 -319 -388 -330
-403 -12 -15 -25 -27 -28 -27 -5 0 119 176 278 395 36 50 323 449 379 528 69
97 266 371 350 487 30 41 152 212 272 380 120 168 246 343 280 390 53 73 240
333 305 425 12 17 46 64 77 105 109 148 90 103 248 595 47 149 95 295 105 325
10 30 51 156 90 280 40 124 80 249 90 278 17 48 17 52 2 40 -20 -16 -12 -8
-148 -134 -60 -56 -122 -113 -139 -128 -16 -15 -52 -49 -80 -74 -27 -26 -108
-101 -180 -167 -71 -66 -139 -129 -150 -140 -12 -11 -43 -39 -68 -63 -26 -23
-47 -44 -47 -47 0 -4 -88 -187 -237 -495 -183 -376 -268 -551 -333 -685 -125
-260 -217 -449 -320 -660 -100 -205 -177 -364 -325 -670 -40 -82 -112 -231
-160 -330 -181 -372 -248 -512 -271 -562 -32 -71 -38 -67 -9 4 38 95 165 395
182 433 9 19 26 60 38 90 13 30 127 303 255 605 128 303 275 651 327 775 52
124 101 240 109 258 30 69 47 109 204 482 89 212 168 399 175 415 13 29 144
340 200 475 15 35 29 74 30 85 3 19 20 132 30 200 3 17 18 127 35 245 17 118
33 226 35 240 5 36 24 168 30 220 3 25 8 56 10 70 7 39 12 73 35 240 12 85 23
166 25 180 14 93 16 114 7 105 -5 -5 -107 -170 -228 -365 -120 -195 -263 -427
-317 -515 -54 -87 -104 -170 -112 -185 -7 -14 -38 -119 -69 -235 -30 -115 -85
-320 -121 -455 -36 -135 -68 -252 -70 -260 -2 -8 -37 -141 -79 -295 -41 -154
-116 -433 -165 -620 -50 -187 -97 -362 -105 -390 -8 -27 -72 -264 -141 -525
-69 -261 -139 -522 -155 -580 -16 -58 -36 -134 -45 -170 -9 -36 -21 -78 -26
-95 -9 -27 -65 -236 -75 -277 -2 -10 -6 -26 -8 -35 -2 -10 -14 -53 -26 -95
-16 -59 -19 -82 -10 -98 10 -18 7 -24 -12 -21 -5 0 -8 -4 -8 -10 0 -5 -5 -7
-11 -3 -8 5 -6 10 5 16 9 5 14 14 10 19 -3 6 6 58 20 117 14 59 37 161 51 227
15 66 32 145 40 175 7 30 16 69 19 85 3 17 7 39 10 50 10 41 87 391 92 415 3
14 7 33 10 42 3 10 7 30 10 45 3 16 11 56 19 91 8 34 17 76 20 94 3 17 8 34
10 38 2 4 7 22 10 41 3 19 22 103 41 188 19 85 39 175 44 200 10 50 12 56 34
151 8 36 17 76 20 90 5 27 28 133 75 340 16 74 32 146 35 160 9 47 186 845
201 905 8 33 19 83 25 110 5 28 23 111 40 185 60 267 81 365 86 390 3 14 9 41
14 60 8 32 7 206 -5 960 -2 129 -4 326 -5 438 -1 111 -3 202 -6 202 -7 0 -16
-25 -203 -550 -56 -157 -109 -303 -117 -325 -9 -22 -38 -103 -66 -180 -27 -77
-60 -169 -73 -205 -13 -36 -26 -90 -29 -120 -6 -53 -11 -103 -21 -200 -2 -25
-7 -74 -10 -110 -3 -36 -7 -81 -10 -100 -2 -19 -7 -64 -10 -100 -3 -36 -8 -83
-10 -105 -2 -22 -7 -67 -10 -100 -3 -33 -8 -78 -10 -100 -10 -91 -15 -134 -20
-210 -4 -44 -8 -91 -10 -105 -2 -14 -9 -79 -15 -145 -6 -66 -13 -136 -15 -155
-3 -19 -7 -64 -10 -100 -3 -36 -7 -85 -10 -110 -10 -101 -25 -249 -30 -310 -3
-36 -8 -81 -10 -100 -2 -19 -7 -64 -10 -100 -3 -36 -8 -81 -10 -100 -3 -19 -7
-64 -10 -100 -8 -92 -15 -170 -20 -205 -2 -16 -6 -64 -10 -105 -3 -41 -8 -91
-10 -110 -2 -19 -7 -62 -10 -95 -12 -122 -15 -151 -19 -195 -3 -25 -8 -72 -11
-105 -10 -102 -13 -138 -20 -205 -4 -36 -8 -78 -10 -95 -8 -94 -17 -193 -20
-215 -2 -14 -6 -59 -10 -100 -4 -41 -8 -92 -11 -112 -2 -20 -6 -67 -10 -105
-12 -147 -23 -183 -18 -63 3 63 7 144 9 180 4 60 13 218 20 350 4 64 13 237
20 360 3 47 7 121 10 165 6 93 14 222 20 350 3 50 7 124 10 165 3 41 7 118 10
170 3 52 7 131 10 175 10 164 14 243 20 335 6 117 14 269 20 375 12 197 16
264 20 325 2 36 7 112 10 170 3 58 8 143 10 190 3 47 7 123 10 170 4 82 13
225 20 340 2 30 7 111 10 180 4 69 7 127 8 130 0 3 -3 21 -7 40 -4 19 -9 46
-10 60 -2 14 -6 41 -10 60 -21 121 -56 320 -60 345 -3 17 -16 98 -31 180 -14
83 -28 164 -31 180 -3 17 -14 82 -25 145 -11 63 -22 126 -24 140 -22 125 -38
217 -40 225 -8 37 -19 111 -17 118 1 4 -2 7 -6 7 -4 0 -16 -46 -25 -102z m53
-5658 c0 -5 -4 -10 -10 -10 -5 0 -10 5 -10 10 0 6 5 10 10 10 6 0 10 -4 10
-10z m-63 -182 c-3 -8 -6 -5 -6 6 -1 11 2 17 5 13 3 -3 4 -12 1 -19z"/>
</g>
</svg>
